HIERARCHY
ROOT Hips
{
	OFFSET -3.958830 18.904000 13.208200
	CHANNELS 6 Xposition Yposition Zposition Zrotation Yrotation Xrotation 
	JOINT LHipJoint
	{
		OFFSET 0.000000 0.000000 0.000000
		CHANNELS 3 Zrotation Yrotation Xrotation
		JOINT LeftUpLeg
		{
			OFFSET 1.800000 -1.400000 0.085000
			CHANNELS 3 Zrotation Yrotation Xrotation
			JOINT LeftLeg
			{
				OFFSET 2.215000 -6.000000 0.000000
				CHANNELS 3 Zrotation Yrotation Xrotation
				JOINT LeftFoot
				{
					OFFSET 2.500000 -6.900000 0.000000
					CHANNELS 3 Zrotation Yrotation Xrotation
					JOINT LeftToeBase
					{
						OFFSET 0.200000 -0.500000 1.950000
						CHANNELS 3 Zrotation Yrotation Xrotation
						End Site
						{
							OFFSET 0.000000 0.000000 0.000000
						}
					}
				}
			}
		}
	}
	JOINT RHipJoint
	{
		OFFSET 0.000000 0.000000 0.000000
		CHANNELS 3 Zrotation Yrotation Xrotation
		JOINT RightUpLeg
		{
			OFFSET -1.800000 -1.400000 0.085000
			CHANNELS 3 Zrotation Yrotation Xrotation
			JOINT RightLeg
			{
				OFFSET -2.215000 -6.000000 0.000000
				CHANNELS 3 Zrotation Yrotation Xrotation
				JOINT RightFoot
				{
					OFFSET -2.500000 -6.900000 0.000000
					CHANNELS 3 Zrotation Yrotation Xrotation
					JOINT RightToeBase
					{
						OFFSET -0.200000 -0.500000 1.950000
						CHANNELS 3 Zrotation Yrotation Xrotation
						End Site
						{
							OFFSET 0.000000 0.000000 0.000000
						}
					}
				}
			}
		}
	}
	JOINT LowerBack
	{
		OFFSET 0.000000 0.000000 0.000000
		CHANNELS 3 Zrotation Yrotation Xrotation
		JOINT Spine
		{
			OFFSET -0.087000 1.940000 -0.288900
			CHANNELS 3 Zrotation Yrotation Xrotation
			JOINT Spine1
			{
				OFFSET 0.000000 1.950000 0.060000
				CHANNELS 3 Zrotation Yrotation Xrotation
				JOINT Neck
				{
					OFFSET 0.000000 0.000000 0.000000
					CHANNELS 3 Zrotation Yrotation Xrotation
					JOINT Neck1
					{
						OFFSET 0.000000 1.600000 0.340000
						CHANNELS 3 Zrotation Yrotation Xrotation
						JOINT Head
						{
							OFFSET 0.000000 1.667000 -0.240000
							CHANNELS 3 Zrotation Yrotation Xrotation
							End Site
							{
								OFFSET 0.000000 0.000000 0.000000
							}
						}
					}
				}
				JOINT LeftShoulder
				{
					OFFSET 0.000000 0.000000 0.000000
					CHANNELS 3 Zrotation Yrotation Xrotation
					JOINT LeftArm
					{
						OFFSET 2.700000 1.550000 -0.730000
						CHANNELS 3 Zrotation Yrotation Xrotation
						JOINT LeftForeArm
						{
							OFFSET 5.450000 0.000000 0.000000
							CHANNELS 3 Zrotation Yrotation Xrotation
							JOINT LeftHand
							{
								OFFSET 3.450000 0.000000 0.000000
								CHANNELS 3 Zrotation Yrotation Xrotation
								JOINT LeftHandIndex1
								{
									OFFSET 0.750000 0.000000 0.000000
									CHANNELS 3 Zrotation Yrotation Xrotation
									End Site
									{
										OFFSET 0.000000 0.000000 0.000000
									}
								}
							}
						}
					}
				}
				JOINT RightShoulder
				{
					OFFSET 0.000000 0.000000 0.000000
					CHANNELS 3 Zrotation Yrotation Xrotation
					JOINT RightArm
					{
						OFFSET -2.700000 1.550000 -0.730000
						CHANNELS 3 Zrotation Yrotation Xrotation
						JOINT RightForeArm
						{
							OFFSET -5.450000 0.000000 0.000000
							CHANNELS 3 Zrotation Yrotation Xrotation
							JOINT RightHand
							{
								OFFSET -3.450000 0.000000 0.000000
								CHANNELS 3 Zrotation Yrotation Xrotation
								JOINT RightHandIndex1
								{
									OFFSET -0.750000 0.000000 0.000000
									CHANNELS 3 Zrotation Yrotation Xrotation
									End Site
									{
										OFFSET 0.000000 0.000000 0.000000
									}
								}
							}
						}
					}
				}
			}
		}
	}
}
MOTION
Frames: 9
Frame Time: 0.016667
-0.074970 17.060090 -0.871460 -5.712771 -2.236119 6.931391 -14.851552 12.669582 3.818101 28.961310 -1.529831 -6.778437 -1.373672 4.351366 -3.417195 0.182205 5.538887 2.873461 0.172800 -0.009370 -0.106450 18.624591 -9.916819 3.002311 2.473871 -1.334225 -3.068167 8.937875 -4.210806 2.178241 -0.379616 -3.748993 3.324027 0.059880 0.491220 0.162790 -4.515810 -2.354722 -8.178863 27.336750 -0.069163 0.422290 -15.880428 1.574199 -9.833457 2.891505 -6.589438 -13.054993 -15.647826 8.655263 44.495481 3.352400 0.383210 3.292570 -6.417578 -1.954640 1.675350 -7.104621 -5.364583 0.996389 12.176181 2.012339 -0.113852 -4.297714 2.628062 0.229120 0.266180 -0.182910 0.274340 -0.618400 10.231633 10.007306 9.086378 6.259387 0.947760 -5.225661 -2.638086 0.057148 2.649368 -1.187577 -0.168950 0.247760 0.051040 -0.003630 
-0.066770 17.062540 -0.884790 -5.636115 -2.225468 6.883834 -14.850894 12.633563 3.828089 28.981817 -1.486021 -6.782544 -1.568738 4.364115 -3.545416 0.187584 5.546928 2.866775 0.172660 -0.007520 -0.105210 18.630369 -9.906135 3.002864 2.180201 -1.323059 -2.965559 9.292873 -4.231713 1.874794 -0.392206 -3.768981 3.318532 0.056430 0.482510 0.159620 -4.526678 -2.323299 -8.183480 27.205041 -0.147077 0.430110 -15.949220 1.562955 -9.409472 2.935987 -6.570772 -13.189428 -15.662178 8.691844 44.623154 3.466710 0.401490 3.087000 -7.187075 -2.508566 1.899963 -6.089167 -4.314768 0.827904 12.041407 1.136971 -0.175376 -4.267715 2.627030 0.238490 0.257280 -0.173860 0.272670 0.081684 10.668334 10.095092 8.204883 6.107583 0.923436 -4.706888 -3.290443 0.071519 2.663031 -1.170661 -0.167540 0.249210 0.050240 -0.005160 
-0.059740 17.064530 -0.900730 -5.495290 -2.187839 6.589987 -14.850958 12.574654 3.829569 29.062904 -1.407170 -6.592094 -1.930255 4.418177 -3.640101 0.193378 5.590569 2.849634 0.173990 -0.012570 -0.100230 18.642210 -9.897241 2.989807 1.699757 -1.335930 -2.673375 9.799911 -4.320915 1.667235 -0.413612 -3.825602 3.303781 0.047190 0.474240 0.163700 -4.546756 -2.258405 -8.163193 26.960468 -0.307764 0.436191 -15.901299 1.475159 -8.284740 3.005694 -6.605377 -13.379817 -15.882419 8.712290 44.596634 3.427850 0.423710 2.824830 -8.693091 -3.597032 2.290757 -4.326866 -2.738009 0.621950 11.845124 0.243084 -0.254725 -4.230671 2.633195 0.254990 0.250270 -0.164280 0.270800 1.512120 11.467741 10.233281 6.295376 5.604873 0.802074 -3.950813 -3.835102 0.055664 2.666830 -1.154092 -0.165470 0.247660 0.051920 -0.010840 
-0.054530 17.063670 -0.916770 -5.318809 -2.165705 6.304126 -14.854146 12.497221 3.845887 29.236105 -1.314502 -6.409959 -2.482128 4.499021 -3.766029 0.214636 5.644792 2.826807 0.179120 -0.008720 -0.093540 18.654131 -9.878915 2.969629 1.095405 -1.343638 -2.392417 10.498207 -4.431638 1.491462 -0.437810 -3.891471 3.284101 0.039730 0.458440 0.164630 -4.563998 -2.189656 -8.147285 26.561458 -0.439266 0.437920 -15.701725 1.391724 -7.024952 3.046318 -6.632655 -13.600070 -16.138560 8.658988 44.415607 3.466070 0.365780 2.584770 -10.167982 -4.776834 2.733588 -2.650719 -1.185818 0.453067 11.658311 -0.475193 -0.304957 -4.185353 2.650262 0.265250 0.237990 -0.151510 0.270310 3.004535 12.314872 10.387595 4.111526 4.821674 0.649948 -3.064493 -4.080822 0.006210 2.672288 -1.143303 -0.156790 0.240350 0.045380 -0.012670 
-0.053320 17.062610 -0.930580 -5.046181 -2.163713 6.133303 -14.857333 12.422706 3.872281 29.395413 -1.216658 -6.374032 -3.197225 4.592211 -3.825959 0.236786 5.695173 2.807021 0.185070 0.000420 -0.091300 18.661650 -9.865595 2.951935 0.379349 -1.316552 -2.233611 11.248149 -4.533431 1.326213 -0.459435 -3.956081 3.265292 0.036550 0.448420 0.164650 -4.574776 -2.118384 -8.148338 25.916672 -0.527852 0.471419 -15.419012 1.308495 -6.104329 3.017707 -6.599493 -13.735773 -16.161774 8.580201 44.111996 3.565900 0.354480 2.407080 -11.225113 -5.677713 3.084214 -1.393461 0.058014 0.349383 11.480399 -1.206971 -0.338792 -4.145257 2.669460 0.269690 0.229220 -0.141030 0.275690 4.193761 12.923226 10.457009 2.489429 4.281306 0.534912 -2.537455 -4.414498 -0.027899 2.680308 -1.142746 -0.148770 0.235390 0.035800 -0.010190 
-0.053550 17.064450 -0.941740 -4.917861 -2.195876 6.103117 -14.858463 12.408257 3.882363 29.387152 -1.199631 -6.430624 -3.274184 4.580183 -3.906179 0.251020 5.685605 2.812808 0.197820 0.015690 -0.084310 18.658622 -9.866483 2.954972 0.072797 -1.276905 -2.234156 11.531716 -4.549510 1.208616 -0.469976 -3.976101 3.262125 0.038480 0.443520 0.168880 -4.569481 -2.096953 -8.165562 25.524159 -0.583228 0.602982 -15.232352 1.259642 -5.947878 3.023666 -6.590743 -13.766706 -16.085348 8.598949 43.997552 3.509600 0.474710 2.388100 -11.524365 -5.878087 3.176733 -1.307867 0.580017 0.298856 11.884386 -2.046509 -0.349196 -4.122412 2.690354 0.264930 0.227590 -0.134890 0.284740 4.493270 13.122617 10.439507 2.062268 4.446814 0.534289 -2.406316 -4.959163 -0.034660 2.693155 -1.152329 -0.137410 0.230090 0.023480 -0.006560 
-0.049740 17.066870 -0.950140 -5.017835 -2.204373 6.113231 -14.856770 12.424788 3.865879 29.315426 -1.246395 -6.496167 -2.729119 4.485635 -3.997193 0.250425 5.633549 2.830078 0.205370 0.033540 -0.082970 18.655079 -9.873664 2.975627 0.173699 -1.290710 -2.193472 11.385242 -4.475384 0.945348 -0.472585 -3.972894 3.258166 0.049320 0.442780 0.172400 -4.564219 -2.095737 -8.172528 25.705293 -0.723206 0.757330 -15.383054 1.172700 -6.110982 3.042332 -6.690382 -13.703736 -16.047000 8.763182 43.753881 3.377390 0.748970 2.261920 -11.017067 -5.493687 3.118435 -2.252767 0.614415 0.285425 12.623417 -3.099140 -0.359801 -4.112433 2.707621 0.253830 0.230170 -0.131230 0.289140 3.901137 12.988248 10.340649 2.846636 5.455809 0.671786 -2.708267 -5.748212 0.005655 2.716662 -1.163717 -0.130990 0.227400 0.016830 -0.000080 
-0.050240 17.067080 -0.959850 -4.799200 -2.281404 5.992061 -14.846277 12.414862 3.827571 29.088685 -1.248348 -6.386662 -2.509345 4.427862 -4.030573 0.239206 5.602108 2.848967 0.207340 0.033900 -0.081620 18.661923 -9.907870 2.986446 -0.211269 -1.274610 -2.075937 11.395310 -4.449956 0.658492 -0.478885 -4.004227 3.252590 0.052230 0.449120 0.174340 -4.586109 -2.009135 -8.153911 25.329333 -0.794686 0.775981 -15.411496 1.097347 -5.592330 3.013237 -6.621716 -13.671387 -15.743101 8.760606 43.450925 3.335900 0.932370 2.161770 -11.283670 -5.788881 3.250729 -1.865712 1.204768 0.256818 12.774131 -3.825669 -0.394276 -4.102232 2.713355 0.255840 0.235990 -0.133070 0.293490 4.204757 13.163496 10.278416 2.643486 5.901102 0.692368 -2.795861 -6.426744 0.032936 2.722876 -1.169682 -0.135740 0.231980 0.015860 -0.002120 
-0.050060 17.064760 -0.970320 -4.583087 -2.350479 5.867322 -14.842957 12.384499 3.804065 29.038044 -1.208424 -6.310263 -2.598933 4.434802 -3.986660 0.238496 5.599922 2.853016 0.209950 0.033910 -0.076300 18.668535 -9.925063 2.982490 -0.709124 -1.242342 -1.983505 11.571384 -4.458418 0.473889 -0.487918 -4.038983 3.240992 0.051670 0.446220 0.174530 -4.600453 -1.929939 -8.133086 24.800291 -0.789410 0.787304 -15.161113 1.064544 -4.818637 3.000602 -6.531354 -13.655878 -15.533180 8.583451 42.989847 3.353090 0.906970 1.994830 -12.017879 -6.374590 3.437239 -1.008009 1.885230 0.208879 12.724160 -4.274728 -0.422499 -4.081021 2.726675 0.259670 0.233150 -0.130340 0.295320 5.002081 13.479143 10.254126 1.470309 5.643819 0.579258 -2.582003 -6.706512 0.004982 2.726765 -1.173676 -0.136770 0.231180 0.011300 -0.003960 
